<svg width="88" height="88" viewBox="0 0 88 88" fill="none" xmlns="http://www.w3.org/2000/svg">
<path d="M62.1325 0.2059C62.9919 0.566837 63.6106 1.34027 63.7825 2.25121L67.2028 20.7965L85.7481 24.1996C86.6591 24.3715 87.4325 24.9903 87.7934 25.8496C88.1544 26.709 88.0512 27.6887 87.5184 28.4622L76.8106 43.9996L87.5184 59.52C88.0512 60.2934 88.1544 61.2731 87.7934 62.1325C87.4325 62.9918 86.6591 63.6106 85.7481 63.7825L67.2028 67.2028L63.7825 85.7481C63.6106 86.659 62.9919 87.4325 62.1325 87.7934C61.2731 88.1543 60.2934 88.0512 59.52 87.5184L43.9997 76.8106L28.4794 87.5184C27.7059 88.0512 26.7262 88.1543 25.8669 87.7934C25.0075 87.4325 24.3887 86.659 24.2169 85.7481L20.7966 67.2028L2.25124 63.7825C1.34031 63.6106 0.566868 62.9918 0.20593 62.1325C-0.155007 61.2731 -0.0518823 60.2934 0.48093 59.52L11.1887 43.9996L0.48093 28.4793C-0.0518823 27.7059 -0.155007 26.7262 0.20593 25.8668C0.566868 25.0075 1.34031 24.3887 2.25124 24.2168L20.7966 20.7965L24.2169 2.25121C24.3887 1.34027 25.0075 0.566837 25.8669 0.2059C26.7262 -0.155038 27.7059 -0.0519128 28.4794 0.4809L43.9997 11.1887L59.52 0.4809C60.2934 -0.0519128 61.2731 -0.155038 62.1325 0.2059ZM27.4997 43.9996C27.4997 39.6236 29.2381 35.4267 32.3324 32.3324C35.4268 29.238 39.6236 27.4996 43.9997 27.4996C48.3758 27.4996 52.5726 29.238 55.6669 32.3324C58.7613 35.4267 60.4997 39.6236 60.4997 43.9996C60.4997 48.3757 58.7613 52.5726 55.6669 55.6669C52.5726 58.7613 48.3758 60.4996 43.9997 60.4996C39.6236 60.4996 35.4268 58.7613 32.3324 55.6669C29.2381 52.5726 27.4997 48.3757 27.4997 43.9996ZM65.9997 43.9996C65.9997 38.1649 63.6818 32.5691 59.556 28.4433C55.4302 24.3175 49.8344 21.9996 43.9997 21.9996C38.1649 21.9996 32.5691 24.3175 28.4433 28.4433C24.3175 32.5691 21.9997 38.1649 21.9997 43.9996C21.9997 49.8344 24.3175 55.4302 28.4433 59.556C32.5691 63.6818 38.1649 65.9996 43.9997 65.9996C49.8344 65.9996 55.4302 63.6818 59.556 59.556C63.6818 55.4302 65.9997 49.8344 65.9997 43.9996Z" fill="#FFCB14"/>
</svg>
